<?xml version="1.0" encoding="utf-8"?>
<!-- Generator: Adobe Illustrator 24.0.2, SVG Export Plug-In . SVG Version: 6.00 Build 0)  -->
<svg version="1.1" id="Layer_1" xmlns="http://www.w3.org/2000/svg" xmlns:xlink="http://www.w3.org/1999/xlink" x="0px" y="0px"
	 viewBox="0 0 128 128" style="enable-background:new 0 0 128 128;" xml:space="preserve">
<style type="text/css">
	.st0{fill:#D33785;}
	.st1{fill:#3279E0;}
</style>
<g>
	<path class="st0" d="M18.8,60.2l-2,13.8h-2.9l-2-5.8l-0.4-1.4l-0.5,1.5L9.2,74H6.4l-2-13.8h2.3l1.2,9.3l0.2,2.1l0.6-1.8l2-6.2h1.7
		l2.2,6.1l0.6,1.8l0.2-1.9l1.1-9.4H18.8z"/>
	<path class="st0" d="M32.6,74h-2.4v-8.8c0-1.1-0.2-1.9-0.6-2.4c-0.4-0.5-1-0.8-1.7-0.8c-0.3,0-0.6,0-0.9,0.1
		c-0.3,0.1-0.6,0.2-0.9,0.5c-0.3,0.2-0.6,0.5-1,0.9c-0.4,0.4-0.8,0.8-1.2,1.4V74h-2.4V54.6h2.4v5.6l-0.1,2.2
		c0.4-0.4,0.7-0.8,1.1-1.1c0.4-0.3,0.7-0.6,1.1-0.7s0.7-0.3,1.1-0.4c0.4-0.1,0.8-0.1,1.2-0.1c1.4,0,2.4,0.4,3.2,1.3
		c0.7,0.8,1.1,2.1,1.1,3.8V74z"/>
	<path class="st0" d="M41.6,62.2h-4.1v-2H44V72h4.1v2h-11v-2h4.5V62.2z M42.5,54.5c0.3,0,0.5,0,0.7,0.1c0.2,0.1,0.4,0.2,0.6,0.4
		s0.3,0.4,0.4,0.6c0.1,0.2,0.1,0.5,0.1,0.7c0,0.3,0,0.5-0.1,0.7c-0.1,0.2-0.2,0.4-0.4,0.6c-0.2,0.2-0.4,0.3-0.6,0.4
		c-0.2,0.1-0.5,0.1-0.7,0.1s-0.5,0-0.7-0.1c-0.2-0.1-0.4-0.2-0.6-0.4c-0.2-0.2-0.3-0.4-0.4-0.6c-0.1-0.2-0.1-0.5-0.1-0.7
		c0-0.3,0-0.5,0.1-0.7c0.1-0.2,0.2-0.4,0.4-0.6s0.4-0.3,0.6-0.4C41.9,54.5,42.2,54.5,42.5,54.5z"/>
	<path class="st0" d="M57,56.6H53v-2h6.5V72h4.1v2h-11v-2H57V56.6z"/>
	<path class="st0" d="M79.4,66.4c0,0.3,0,0.6,0,0.8c0,0.2,0,0.4,0,0.6h-9.7c0,1.4,0.4,2.5,1.2,3.2c0.8,0.8,1.9,1.1,3.4,1.1
		c0.4,0,0.8,0,1.2,0c0.4,0,0.8-0.1,1.2-0.1c0.4-0.1,0.7-0.1,1.1-0.2s0.7-0.1,1-0.2v2c-0.6,0.2-1.4,0.3-2.2,0.4s-1.7,0.2-2.5,0.2
		c-1.2,0-2.2-0.2-3-0.5c-0.8-0.3-1.5-0.8-2.1-1.4c-0.5-0.6-0.9-1.4-1.2-2.2c-0.3-0.9-0.4-1.9-0.4-3c0-1,0.1-1.9,0.4-2.7
		c0.3-0.9,0.7-1.6,1.2-2.3s1.2-1.2,2-1.6c0.8-0.4,1.7-0.6,2.6-0.6c1,0,1.8,0.2,2.5,0.5c0.7,0.3,1.4,0.7,1.9,1.3
		c0.5,0.6,0.9,1.2,1.2,2C79.3,64.5,79.4,65.4,79.4,66.4z M76.9,66c0-0.6,0-1.2-0.2-1.7c-0.1-0.5-0.4-0.9-0.7-1.3s-0.7-0.7-1.1-0.9
		c-0.5-0.2-1-0.3-1.6-0.3c-0.5,0-1,0.1-1.4,0.3c-0.4,0.2-0.8,0.5-1.1,0.8c-0.3,0.4-0.6,0.8-0.8,1.3c-0.2,0.5-0.3,1.1-0.4,1.7H76.9z"
		/>
	<path d="M91.4,79.7c-4.2-3.9-6.3-8.2-6.3-12.9c0-1.1,0.1-2.2,0.3-3.3c0.2-1.1,0.6-2.2,1.1-3.3c0.5-1.1,1.2-2.2,2-3.3
		c0.8-1.1,1.8-2.2,3-3.3l1.4,1.4c-3.5,3.5-5.3,7.4-5.3,11.6c0,2.1,0.4,4.2,1.3,6.1c0.9,2,2.2,3.8,4,5.5L91.4,79.7z"/>
	<path class="st1" d="M110.1,74H98.8v-2.2h4.6V58.7L99.2,61l-0.9-2l5.7-3h2.1v15.8h4V74z"/>
	<path d="M116.9,53.6c4.2,3.9,6.3,8.2,6.3,13c0,1-0.1,2-0.3,3.1s-0.5,2.1-1,3.3c-0.5,1.1-1.1,2.2-2,3.4c-0.8,1.1-1.8,2.3-3.1,3.4
		l-1.4-1.4c1.8-1.8,3.1-3.6,4-5.5c0.9-1.9,1.3-3.9,1.3-6c0-4.3-1.8-8.3-5.3-11.7L116.9,53.6z"/>
</g>
</svg>
