<?xml version="1.0" encoding="utf-8"?>
<!-- Generator: Adobe Illustrator 24.0.2, SVG Export Plug-In . SVG Version: 6.00 Build 0)  -->
<svg version="1.1" id="Layer_1" xmlns="http://www.w3.org/2000/svg" xmlns:xlink="http://www.w3.org/1999/xlink" x="0px" y="0px"
	 viewBox="0 0 128 128" style="enable-background:new 0 0 128 128;" xml:space="preserve">
<style type="text/css">
	.st0{fill:#FFC022;stroke:#000000;stroke-width:2;stroke-miterlimit:10;}
	.st1{fill:#FFBC00;}
</style>
<g>
	<path class="st0" d="M61.9,4.8L82,35c0.7,1.1,2,1.8,3.3,1.8l36.2,0.6c3.3,0.1,5.2,3.9,3.1,6.5l-22.5,28.4c-0.8,1-1.1,2.4-0.7,3.7
		l10.7,34.6c1,3.2-2.1,6.1-5.2,5l-34-12.6c-1.2-0.5-2.6-0.3-3.7,0.5l-29.6,20.9c-2.7,1.9-6.5-0.1-6.3-3.5l1.5-36.2
		c0.1-1.3-0.5-2.6-1.6-3.4l-29-21.8c-2.7-2-1.9-6.2,1.3-7.1l34.9-9.8c1.3-0.4,2.3-1.3,2.7-2.6L54.8,5.7C55.9,2.6,60.1,2,61.9,4.8z"
		/>
	<g>
		<g>
			<path class="st1" d="M59.5,30c-2.2,4.9-4.8,9.6-7.9,14.1c-0.9,1.3-0.3,3.4,1.1,4.1c1.5,0.8,3.2,0.3,4.1-1.1
				c3-4.5,5.7-9.2,7.9-14.1c0.6-1.4,0.5-3.3-1.1-4.1C62.3,28.2,60.2,28.4,59.5,30L59.5,30z"/>
		</g>
	</g>
	<circle class="st1" cx="45.7" cy="58.5" r="4.4"/>
</g>
</svg>
