<?xml version="1.0" encoding="utf-8"?>
<!-- Generator: Adobe Illustrator 24.0.2, SVG Export Plug-In . SVG Version: 6.00 Build 0)  -->
<svg version="1.1" id="Layer_1" xmlns="http://www.w3.org/2000/svg" xmlns:xlink="http://www.w3.org/1999/xlink" x="0px" y="0px"
	 viewBox="0 0 128 128" style="enable-background:new 0 0 128 128;" xml:space="preserve">
<style type="text/css">
	.st0{enable-background:new    ;}
</style>
<g class="st0">
	<path d="M19.3,57.8l-1.9,13.1h-2.8l-1.9-5.5l-0.4-1.3l-0.4,1.4l-1.8,5.4H7.4L5.5,57.8h2.2l1.1,8.9l0.2,2L9.7,67l1.9-5.9h1.6
		l2.1,5.8l0.6,1.7l0.2-1.8l1-9H19.3z"/>
	<path d="M32.4,70.9h-2.3v-8.4c0-1-0.2-1.8-0.6-2.3s-0.9-0.8-1.6-0.8c-0.3,0-0.6,0-0.9,0.1s-0.5,0.2-0.8,0.4s-0.6,0.5-0.9,0.8
		s-0.7,0.8-1.2,1.3v8.7h-2.3V52.4h2.3v5.4l-0.1,2.1c0.4-0.4,0.7-0.8,1.1-1.1c0.3-0.3,0.7-0.5,1-0.7c0.3-0.2,0.7-0.3,1.1-0.4
		c0.4-0.1,0.7-0.1,1.1-0.1c1.3,0,2.3,0.4,3,1.2c0.7,0.8,1.1,2,1.1,3.6V70.9z"/>
	<path d="M41.1,59.7h-3.9v-1.9h6.2V69h3.9v1.9H36.8V69h4.3V59.7z M41.9,52.3c0.3,0,0.5,0,0.7,0.1c0.2,0.1,0.4,0.2,0.6,0.4
		s0.3,0.4,0.4,0.6c0.1,0.2,0.1,0.4,0.1,0.7c0,0.2,0,0.5-0.1,0.7c-0.1,0.2-0.2,0.4-0.4,0.6s-0.4,0.3-0.6,0.4
		c-0.2,0.1-0.5,0.1-0.7,0.1c-0.3,0-0.5,0-0.7-0.1c-0.2-0.1-0.4-0.2-0.6-0.4c-0.2-0.2-0.3-0.4-0.4-0.6c-0.1-0.2-0.1-0.4-0.1-0.7
		c0-0.3,0-0.5,0.1-0.7s0.2-0.4,0.4-0.6c0.2-0.2,0.4-0.3,0.6-0.4C41.4,52.3,41.6,52.3,41.9,52.3z"/>
	<path d="M55.8,54.3h-3.9v-1.9h6.2V69H62v1.9H51.5V69h4.3V54.3z"/>
	<path d="M77.2,63.7c0,0.3,0,0.6,0,0.8c0,0.2,0,0.4,0,0.6h-9.2c0,1.3,0.4,2.4,1.1,3.1c0.8,0.7,1.8,1.1,3.2,1.1c0.4,0,0.8,0,1.2,0
		c0.4,0,0.8-0.1,1.1-0.1c0.4-0.1,0.7-0.1,1-0.2c0.3-0.1,0.6-0.1,0.9-0.2v1.9c-0.6,0.2-1.3,0.3-2.1,0.4c-0.8,0.1-1.6,0.2-2.4,0.2
		c-1.1,0-2.1-0.2-2.9-0.5c-0.8-0.3-1.5-0.7-2-1.3s-0.9-1.3-1.2-2.1c-0.2-0.8-0.4-1.8-0.4-2.9c0-0.9,0.1-1.8,0.4-2.6
		c0.3-0.8,0.7-1.5,1.2-2.2c0.5-0.6,1.1-1.1,1.9-1.5c0.7-0.4,1.6-0.5,2.5-0.5c0.9,0,1.7,0.1,2.4,0.4s1.3,0.7,1.8,1.2
		c0.5,0.5,0.8,1.2,1.1,1.9C77.1,61.9,77.2,62.7,77.2,63.7z M74.8,63.3c0-0.6,0-1.1-0.2-1.6c-0.1-0.5-0.4-0.9-0.6-1.3
		c-0.3-0.3-0.7-0.6-1.1-0.8c-0.4-0.2-0.9-0.3-1.5-0.3c-0.5,0-1,0.1-1.4,0.3c-0.4,0.2-0.8,0.5-1.1,0.8c-0.3,0.3-0.5,0.8-0.7,1.3
		c-0.2,0.5-0.3,1-0.3,1.6H74.8z"/>
	<path d="M88.7,76.4c-4-3.7-6-7.8-6-12.4c0-1.1,0.1-2.1,0.3-3.2c0.2-1.1,0.6-2.1,1-3.2s1.1-2.1,1.9-3.2c0.8-1.1,1.7-2.1,2.8-3.1
		l1.3,1.3c-3.4,3.3-5.1,7-5.1,11.1c0,2,0.4,4,1.3,5.8c0.9,1.9,2.1,3.6,3.8,5.3L88.7,76.4z"/>
	<path d="M106.5,70.9H95.8v-2.1h4.4V56.3l-4.1,2.2l-0.8-1.9l5.4-2.9h2v15.1h3.8V70.9z"/>
	<path d="M113,51.4c4,3.7,6,7.9,6,12.4c0,0.9-0.1,1.9-0.3,2.9c-0.2,1-0.5,2-1,3.1c-0.5,1.1-1.1,2.1-1.9,3.2c-0.8,1.1-1.8,2.2-3,3.3
		l-1.3-1.3c1.7-1.7,3-3.4,3.8-5.3c0.8-1.8,1.3-3.8,1.3-5.8c0-4.2-1.7-7.9-5.1-11.2L113,51.4z"/>
</g>
</svg>
