<?xml version="1.0" encoding="utf-8"?>
<!-- Generator: Adobe Illustrator 24.0.2, SVG Export Plug-In . SVG Version: 6.00 Build 0)  -->
<svg version="1.1" id="Layer_1" xmlns="http://www.w3.org/2000/svg" xmlns:xlink="http://www.w3.org/1999/xlink" x="0px" y="0px"
	 viewBox="0 0 128 128" style="enable-background:new 0 0 128 128;" xml:space="preserve">
<style type="text/css">
	.st0{fill:#CFE0E2;stroke:#000000;stroke-width:2;stroke-miterlimit:10;}
	.st1{fill:#A0BDC1;}
</style>
<g>
	<g>
		<circle class="st0" cx="55.6" cy="54" r="51"/>
		<path d="M108.7,124.3l-19.6-22.4c-3.6-3.6-5.1-8.2-1.5-11.9l0.9-0.9c3.6-3.6,8.3-2.2,12,1.4l22.3,19.7c3.6,3.6,3.6,9.5,0,13.1
			l-0.9,0.9C118.2,127.9,112.3,127.9,108.7,124.3z"/>
	</g>
	<g>
		<g>
			<path class="st1" d="M24.9,33.3c-2.4,1.8-4.3,4-5.6,6.6c-1.3,2.7-2,5.6-2,8.5c0,1.6,1.4,3.1,3,3s3-1.3,3-3c0-0.6,0-1.2,0.1-1.7
				c0-0.1,0-0.3,0-0.4c0,0.1-0.1,0.6,0,0.2c0.1-0.3,0.1-0.6,0.2-0.9c0.1-0.6,0.3-1.1,0.5-1.7c0-0.1,0.3-0.8,0.3-0.8
				s-0.3,0.6-0.1,0.2c0.1-0.1,0.1-0.3,0.2-0.4c0.2-0.5,0.5-1,0.8-1.4c0.2-0.2,0.3-0.5,0.5-0.7c0.1-0.1,0.2-0.2,0.2-0.3
				c0.2-0.3-0.4,0.5-0.1,0.1c0.4-0.4,0.7-0.8,1.1-1.2c0.2-0.2,0.4-0.4,0.6-0.6c0.2-0.1,1-0.8,0.3-0.3c0.6-0.5,1.2-1,1.4-1.8
				c0.2-0.7,0.1-1.7-0.3-2.3C28.2,33.2,26.2,32.3,24.9,33.3L24.9,33.3z"/>
		</g>
	</g>
	<circle class="st1" cx="22.6" cy="61.7" r="4.3"/>
</g>
</svg>
