<?xml version="1.0" encoding="utf-8"?>
<!-- Generator: Adobe Illustrator 24.0.2, SVG Export Plug-In . SVG Version: 6.00 Build 0)  -->
<svg version="1.1" id="Layer_1" xmlns="http://www.w3.org/2000/svg" xmlns:xlink="http://www.w3.org/1999/xlink" x="0px" y="0px"
	 viewBox="0 0 128 128" style="enable-background:new 0 0 128 128;" xml:space="preserve">
<style type="text/css">
	.st0{fill:#90C4AA;stroke:#000000;stroke-width:2;stroke-miterlimit:10;}
</style>
<path class="st0" d="M115.4,49.5H79.2V13.3c0-5.9-4.8-10.8-10.8-10.8h-8.8C53.8,2.5,49,7.4,49,13.3v36.2H12.8
	C6.9,49.5,2,54.3,2,60.2V69c0,5.9,4.8,10.8,10.8,10.8H49v36.2c0,5.9,4.8,10.8,10.8,10.8h8.8c5.9,0,10.8-4.8,10.8-10.8V79.7h36.2
	c5.9,0,10.8-4.8,10.8-10.8v-8.8C126.2,54.3,121.3,49.5,115.4,49.5z"/>
</svg>
